<svg width="60px" height="50px" id="Layer_1" xmlns="http://www.w3.org/2000/svg" viewBox="0 0 877.74 716.52"><defs><style>.cls-1,.cls-2{fill:none;stroke:#636e72;stroke-miterlimit:10;stroke-width:20px;}.cls-2{stroke-linecap:round;}.cls-3{fill:#636e72;}</style></defs><title>eazy-commerce-logo</title><g id="_C-Group_"><path class="cls-1" d="M1177,82.49a141.19,141.19,0,0,0-70,14c-43.92,21.57-62.39,59.75-67.43,71.25L940,587.74c-7,36.32,5.11,72.86,32,94.75,22.7,18.48,51,20.53,67,20" transform="translate(-358.39 -72.26)"/><line class="cls-2" x1="681.39" y1="630.23" x2="747.39" y2="630.23"/><line class="cls-2" x1="801.74" y1="10.23" x2="867.74" y2="10.23"/></g><g id="_E-Group_"><path class="cls-1" d="M471.17,249.56c-97.59,0-124.83,76.16-85.37,139.08,24.06,38.37,51.53,75.49,96.56,152.26C559,671.56,614,702.56,699,702.56c14.69,0,26.71.69,34.23,0" transform="translate(-358.39 -72.26)"/><path class="cls-3" d="M545.63,467.65C468.43,459,406.89,422.08,389,374.85l-1.55,0-.17,18.94L445,477.37l100.52.92Z" transform="translate(-358.39 -72.26)"/><polygon class="cls-3" points="79.65 414.3 575.61 414.3 581.33 394.3 79.65 394.3 79.65 414.3"/><path class="cls-3" d="M695,712.56c-13.83-.7-26.35-1.75-37-3.06" transform="translate(-358.39 -72.26)"/><path class="cls-3" d="M658,709.5c10.62,1.31,23.14,2.36,37,3.06H868.59l5.72-20H658Z" transform="translate(-358.39 -72.26)"/><polygon class="cls-3" points="112.65 167.3 112.65 187.3 640.45 187.3 645.72 168.85 645.72 167.3 112.65 167.3"/></g><g id="_Wheel-Group_"><circle class="cls-3" cx="345.61" cy="680.52" r="36"/><circle class="cls-3" cx="651.61" cy="680.52" r="36"/></g></svg>